<svg width="430" height="932" viewBox="0 0 430 932" fill="none" xmlns="http://www.w3.org/2000/svg">
<g clip-path="url(#clip0_2025_440)">
<rect width="430" height="932" fill="white"/>
<g clip-path="url(#clip1_2025_440)">
<path d="M115.801 264.055C114.891 263.198 113.758 262.577 112.513 262.253C111.267 261.93 109.954 261.914 108.7 262.209C98.983 264.589 90.0838 269.259 82.8551 275.771C81.4331 277.106 80.3242 278.703 79.5989 280.46C78.8736 282.216 78.5477 284.095 78.642 285.975C78.7763 288.705 79.8029 291.331 81.5838 293.5L73.5495 301.013C73.3704 301.174 73.2275 301.368 73.1293 301.581C73.031 301.795 72.9793 302.024 72.9771 302.257C72.975 302.489 73.0224 302.719 73.1167 302.934C73.211 303.15 73.3502 303.345 73.5262 303.509C73.7023 303.674 73.9116 303.803 74.1421 303.891C74.3725 303.979 74.6194 304.024 74.8683 304.022C75.1173 304.02 75.3633 303.971 75.5921 303.88C75.8209 303.788 76.0278 303.655 76.2007 303.488L84.2332 295.991C86.6953 297.785 89.7309 298.756 92.8545 298.75C94.9214 298.722 96.9623 298.315 98.8604 297.55C100.759 296.786 102.477 295.681 103.917 294.297C112.167 286.597 116.823 274.266 117.781 270.628C118.092 269.466 118.073 268.249 117.726 267.096C117.379 265.943 116.715 264.895 115.801 264.055V264.055ZM82.3882 285.814C82.3176 284.419 82.5587 283.025 83.0962 281.722C83.6336 280.418 84.4557 279.233 85.5101 278.242C86.3126 277.498 87.147 276.8 88.0001 276.118V287.526L84.2688 291.008C83.1318 289.476 82.4801 287.676 82.3882 285.814V285.814ZM101.209 291.868C99.4237 293.679 97.0041 294.836 94.3858 295.131C91.7674 295.427 89.1222 294.84 86.9257 293.478L91.1988 289.489L96.2763 284.75H107.08C105.382 287.299 103.415 289.683 101.209 291.868ZM114.147 269.783C113.017 273.773 111.38 277.622 109.272 281.25H100.026L106.201 275.488C106.38 275.326 106.523 275.133 106.621 274.919C106.719 274.706 106.771 274.476 106.773 274.244C106.775 274.012 106.728 273.781 106.634 273.566C106.539 273.351 106.4 273.156 106.224 272.991C106.048 272.827 105.839 272.697 105.608 272.609C105.378 272.521 105.131 272.477 104.882 272.479C104.633 272.481 104.387 272.529 104.158 272.621C103.929 272.713 103.722 272.846 103.549 273.013L94.1745 281.763L91.7501 284.026V273.396C97.1707 269.851 103.213 267.215 109.604 265.607C109.901 265.537 110.205 265.501 110.511 265.5C111.003 265.501 111.489 265.593 111.942 265.77C112.396 265.947 112.807 266.205 113.153 266.531C113.61 266.944 113.942 267.462 114.115 268.033C114.288 268.604 114.296 269.208 114.139 269.783H114.147Z" fill="#3E7B31"/>
</g>
<g clip-path="url(#clip2_2025_440)">
<path d="M38.8007 468.055C37.8909 467.198 36.7577 466.577 35.5126 466.253C34.2675 465.93 32.9535 465.914 31.7001 466.209C21.983 468.589 13.0838 473.259 5.85509 479.771C4.43308 481.106 3.32419 482.703 2.59888 484.46C1.87357 486.216 1.5477 488.095 1.64197 489.975C1.77627 492.705 2.80291 495.331 4.58384 497.5L-3.45053 505.013C-3.62962 505.174 -3.77246 505.368 -3.87072 505.581C-3.96899 505.795 -4.02072 506.024 -4.02288 506.257C-4.02504 506.489 -3.9776 506.719 -3.88332 506.934C-3.78905 507.15 -3.64982 507.345 -3.47377 507.509C-3.29773 507.674 -3.08838 507.803 -2.85795 507.891C-2.62752 507.979 -2.38062 508.024 -2.13166 508.022C-1.8827 508.02 -1.63666 507.971 -1.4079 507.88C-1.17914 507.788 -0.972247 507.655 -0.799284 507.488L7.23322 499.991C9.69527 501.785 12.7309 502.756 15.8545 502.75C17.9214 502.722 19.9623 502.315 21.8604 501.55C23.7585 500.786 25.4768 499.681 26.917 498.297C35.167 490.597 39.8226 478.266 40.7807 474.628C41.0922 473.466 41.0734 472.249 40.7261 471.096C40.3788 469.943 39.7152 468.895 38.8007 468.055V468.055ZM5.38822 489.814C5.31764 488.419 5.55874 487.025 6.09618 485.722C6.63362 484.418 7.45566 483.233 8.51009 482.242C9.31259 481.498 10.147 480.8 11.0001 480.118V491.526L7.26884 495.008C6.13185 493.476 5.4801 491.676 5.38822 489.814V489.814ZM24.2095 495.868C22.4237 497.679 20.0041 498.836 17.3858 499.131C14.7674 499.427 12.1222 498.84 9.92572 497.478L14.1988 493.489L19.2763 488.75H30.0801C28.3818 491.299 26.4152 493.683 24.2095 495.868ZM37.147 473.783C36.0168 477.773 34.3802 481.622 32.272 485.25H23.0263L29.2007 479.488C29.3798 479.326 29.5226 479.133 29.6209 478.919C29.7192 478.706 29.7709 478.476 29.7731 478.244C29.7752 478.012 29.7278 477.781 29.6335 477.566C29.5392 477.351 29.4 477.156 29.224 476.991C29.0479 476.827 28.8386 476.697 28.6081 476.609C28.3777 476.521 28.1308 476.477 27.8818 476.479C27.6329 476.481 27.3868 476.529 27.1581 476.621C26.9293 476.713 26.7224 476.846 26.5495 477.013L17.1745 485.763L14.7501 488.026V477.396C20.1707 473.851 26.2126 471.215 32.6038 469.607C32.9006 469.537 33.2053 469.501 33.5113 469.5C34.0027 469.501 34.4891 469.593 34.9424 469.77C35.3958 469.947 35.8073 470.205 36.1532 470.531C36.6099 470.944 36.9416 471.462 37.1148 472.033C37.2879 472.604 37.2965 473.208 37.1395 473.783H37.147Z" fill="#3E7B31"/>
</g>
<g clip-path="url(#clip3_2025_440)">
<path d="M222.963 387.673C222.373 387.852 221.826 388.16 221.362 388.576C220.898 388.992 220.527 389.505 220.278 390.078C218.679 393.717 213.611 406.124 215.468 413.037C216.364 416.346 218.444 419.17 221.306 420.962C224.168 422.755 227.61 423.389 230.966 422.742L232.989 430.253C233.09 430.605 233.324 430.898 233.641 431.071C233.957 431.243 234.331 431.28 234.682 431.175C235.032 431.069 235.331 430.829 235.514 430.506C235.698 430.183 235.75 429.802 235.661 429.447L233.639 421.936C236.815 420.615 239.427 418.157 240.968 415.036C242.509 411.916 242.871 408.355 241.983 405.042C240.095 398.033 229.616 390.385 226.451 388.205C225.951 387.859 225.379 387.631 224.776 387.539C224.173 387.447 223.554 387.493 222.963 387.673V387.673ZM239.309 405.839C240.003 408.435 239.736 411.223 238.559 413.682C237.382 416.141 235.375 418.103 232.912 419.203L227.968 400.841C227.867 400.49 227.633 400.196 227.316 400.024C226.999 399.851 226.625 399.814 226.275 399.92C225.925 400.025 225.626 400.265 225.442 400.589C225.259 400.912 225.206 401.292 225.295 401.647L230.236 420.015C227.596 420.455 224.912 419.907 222.687 418.473C220.461 417.04 218.847 414.82 218.143 412.226C216.857 407.444 219.843 397.891 222.802 391.169C222.886 390.978 223.009 390.808 223.163 390.669C223.318 390.531 223.5 390.428 223.696 390.368C223.892 390.308 224.097 390.292 224.298 390.322C224.498 390.351 224.689 390.426 224.856 390.539C230.985 394.758 237.999 400.993 239.306 405.845L239.309 405.839Z" fill="#3E7B31"/>
</g>
<g clip-path="url(#clip4_2025_440)">
<path d="M434.801 383.055C433.891 382.198 432.758 381.577 431.513 381.253C430.267 380.93 428.954 380.914 427.7 381.209C417.983 383.589 409.084 388.259 401.855 394.771C400.433 396.106 399.324 397.703 398.599 399.46C397.874 401.216 397.548 403.095 397.642 404.975C397.776 407.705 398.803 410.331 400.584 412.5L392.549 420.013C392.37 420.174 392.228 420.368 392.129 420.581C392.031 420.795 391.979 421.024 391.977 421.257C391.975 421.489 392.022 421.719 392.117 421.934C392.211 422.15 392.35 422.345 392.526 422.509C392.702 422.674 392.912 422.803 393.142 422.891C393.372 422.979 393.619 423.024 393.868 423.022C394.117 423.02 394.363 422.971 394.592 422.88C394.821 422.788 395.028 422.655 395.201 422.488L403.233 414.991C405.695 416.785 408.731 417.756 411.854 417.75C413.921 417.722 415.962 417.315 417.86 416.55C419.759 415.786 421.477 414.681 422.917 413.297C431.167 405.597 435.823 393.266 436.781 389.628C437.092 388.466 437.073 387.249 436.726 386.096C436.379 384.943 435.715 383.895 434.801 383.055V383.055ZM401.388 404.814C401.318 403.419 401.559 402.025 402.096 400.722C402.634 399.418 403.456 398.233 404.51 397.242C405.313 396.498 406.147 395.8 407 395.118V406.526L403.269 410.008C402.132 408.476 401.48 406.676 401.388 404.814V404.814ZM420.209 410.868C418.424 412.679 416.004 413.836 413.386 414.131C410.767 414.427 408.122 413.84 405.926 412.478L410.199 408.489L415.276 403.75H426.08C424.382 406.299 422.415 408.683 420.209 410.868ZM433.147 388.783C432.017 392.773 430.38 396.622 428.272 400.25H419.026L425.201 394.488C425.38 394.326 425.523 394.133 425.621 393.919C425.719 393.706 425.771 393.476 425.773 393.244C425.775 393.012 425.728 392.781 425.634 392.566C425.539 392.351 425.4 392.156 425.224 391.991C425.048 391.827 424.839 391.697 424.608 391.609C424.378 391.521 424.131 391.477 423.882 391.479C423.633 391.481 423.387 391.529 423.158 391.621C422.929 391.713 422.722 391.846 422.549 392.013L413.174 400.763L410.75 403.026V392.396C416.171 388.851 422.213 386.215 428.604 384.607C428.901 384.537 429.205 384.501 429.511 384.5C430.003 384.501 430.489 384.593 430.942 384.77C431.396 384.947 431.807 385.205 432.153 385.531C432.61 385.944 432.942 386.462 433.115 387.033C433.288 387.604 433.296 388.208 433.139 388.783H433.147Z" fill="#3E7B31"/>
</g>
<g clip-path="url(#clip5_2025_440)">
<path d="M243.801 506.055C242.891 505.198 241.758 504.577 240.513 504.253C239.267 503.93 237.954 503.914 236.7 504.209C226.983 506.589 218.084 511.259 210.855 517.771C209.433 519.106 208.324 520.703 207.599 522.46C206.874 524.216 206.548 526.095 206.642 527.975C206.776 530.705 207.803 533.331 209.584 535.5L201.549 543.013C201.37 543.174 201.228 543.368 201.129 543.581C201.031 543.795 200.979 544.024 200.977 544.257C200.975 544.489 201.022 544.719 201.117 544.934C201.211 545.15 201.35 545.345 201.526 545.509C201.702 545.674 201.912 545.803 202.142 545.891C202.372 545.979 202.619 546.024 202.868 546.022C203.117 546.02 203.363 545.971 203.592 545.88C203.821 545.788 204.028 545.655 204.201 545.488L212.233 537.991C214.695 539.785 217.731 540.756 220.854 540.75C222.921 540.722 224.962 540.315 226.86 539.55C228.759 538.786 230.477 537.681 231.917 536.297C240.167 528.597 244.823 516.266 245.781 512.628C246.092 511.466 246.073 510.249 245.726 509.096C245.379 507.943 244.715 506.895 243.801 506.055V506.055ZM210.388 527.814C210.318 526.419 210.559 525.025 211.096 523.722C211.634 522.418 212.456 521.233 213.51 520.242C214.313 519.498 215.147 518.8 216 518.118V529.526L212.269 533.008C211.132 531.476 210.48 529.676 210.388 527.814V527.814ZM229.209 533.868C227.424 535.679 225.004 536.836 222.386 537.131C219.767 537.427 217.122 536.84 214.926 535.478L219.199 531.489L224.276 526.75H235.08C233.382 529.299 231.415 531.683 229.209 533.868ZM242.147 511.783C241.017 515.773 239.38 519.622 237.272 523.25H228.026L234.201 517.488C234.38 517.326 234.523 517.133 234.621 516.919C234.719 516.706 234.771 516.476 234.773 516.244C234.775 516.012 234.728 515.781 234.634 515.566C234.539 515.351 234.4 515.156 234.224 514.991C234.048 514.827 233.839 514.697 233.608 514.609C233.378 514.521 233.131 514.477 232.882 514.479C232.633 514.481 232.387 514.529 232.158 514.621C231.929 514.713 231.722 514.846 231.549 515.013L222.174 523.763L219.75 526.026V515.396C225.171 511.851 231.213 509.215 237.604 507.607C237.901 507.537 238.205 507.501 238.511 507.5C239.003 507.501 239.489 507.593 239.942 507.77C240.396 507.947 240.807 508.205 241.153 508.531C241.61 508.944 241.942 509.462 242.115 510.033C242.288 510.604 242.296 511.208 242.139 511.783H242.147Z" fill="#3E7B31"/>
</g>
<g clip-path="url(#clip6_2025_440)">
<path d="M94.7424 81.2948C94.2666 80.903 93.7067 80.619 93.1031 80.4632C92.4995 80.3074 91.8672 80.2837 91.2517 80.3939C87.3375 81.0818 74.2022 83.7446 69.4794 89.1243C67.2226 91.705 66.0267 95.0015 66.1226 98.3773C66.2185 101.753 67.5994 104.969 69.9987 107.403L64.8702 113.251C64.6339 113.531 64.5194 113.888 64.5516 114.247C64.5838 114.606 64.76 114.938 65.0423 115.171C65.3246 115.404 65.6903 115.52 66.0608 115.493C66.4313 115.466 66.7769 115.3 67.0231 115.028L72.1516 109.18C75.0123 111.091 78.5062 111.9 81.9576 111.452C85.409 111.004 88.5729 109.33 90.8375 106.754C95.6222 101.296 96.1752 88.3346 96.2337 84.4922C96.2449 83.8842 96.1169 83.282 95.859 82.729C95.6011 82.1761 95.2197 81.6862 94.7424 81.2948V81.2948ZM88.6913 104.971C86.9159 106.988 84.4483 108.312 81.7492 108.697C79.05 109.081 76.3037 108.499 74.023 107.059L86.5605 92.7622C86.7969 92.4829 86.9113 92.1253 86.8791 91.7662C86.8469 91.4071 86.6707 91.0753 86.3884 90.8423C86.1062 90.6093 85.7404 90.4937 85.3699 90.5204C84.9994 90.5471 84.6538 90.714 84.4076 90.9851L71.8631 105.283C70.0328 103.33 69.0006 100.793 68.9592 98.1461C68.9177 95.4995 69.8699 92.9241 71.6379 90.9009C74.9039 87.178 84.5095 84.3652 91.744 83.0993C91.9489 83.0632 92.1592 83.0713 92.3601 83.123C92.5609 83.1748 92.7474 83.2689 92.9061 83.3988C93.0649 83.5286 93.1921 83.6909 93.2786 83.8742C93.3652 84.0575 93.409 84.2573 93.407 84.4593C93.2959 91.8994 91.9969 101.194 88.6842 104.972L88.6913 104.971Z" fill="#3E7B31"/>
</g>
<g clip-path="url(#clip7_2025_440)">
<path d="M86.9248 218.615C87.29 218.118 87.5429 217.544 87.6655 216.932C87.788 216.321 87.777 215.689 87.6333 215.08C86.7323 211.209 83.3547 198.239 77.7246 193.818C75.0243 191.706 71.6672 190.692 68.3018 190.973C64.9363 191.253 61.8011 192.808 59.5017 195.337L53.3815 190.536C53.0897 190.315 52.7263 190.221 52.3695 190.272C52.0127 190.324 51.6911 190.518 51.4739 190.813C51.2566 191.108 51.1612 191.479 51.2082 191.848C51.2551 192.216 51.4407 192.552 51.7249 192.783L57.8451 197.584C56.0938 200.545 55.4767 204.078 56.1129 207.499C56.7492 210.921 58.5937 213.989 61.2899 216.109C67.0014 220.588 79.974 220.431 83.8138 220.279C84.4215 220.257 85.0158 220.096 85.5538 219.808C86.0918 219.52 86.5601 219.113 86.9248 218.615V218.615ZM62.9529 213.868C60.8417 212.206 59.3844 209.815 58.853 207.141C58.3215 204.466 58.7524 201.692 60.065 199.336L75.0269 211.073C75.3186 211.293 75.682 211.388 76.0388 211.336C76.3956 211.285 76.7173 211.09 76.9345 210.796C77.1517 210.501 77.2471 210.13 77.2002 209.761C77.1532 209.393 76.9677 209.057 76.6835 208.826L61.7206 197.083C63.5709 195.148 66.0475 193.979 68.6879 193.792C71.3282 193.606 73.9518 194.416 76.0688 196.071C79.9648 199.128 83.2991 208.565 84.9589 215.72C85.0062 215.922 85.0096 216.133 84.9689 216.336C84.9282 216.539 84.8444 216.731 84.7235 216.896C84.6026 217.062 84.4474 217.198 84.2691 217.294C84.0909 217.391 83.8938 217.446 83.692 217.455C76.257 217.751 66.9052 216.962 62.9519 213.861L62.9529 213.868Z" fill="#3E7B31"/>
</g>
<g clip-path="url(#clip8_2025_440)">
<path d="M207.752 756.198C207.309 755.77 206.774 755.442 206.185 755.238C205.596 755.034 204.967 754.96 204.345 755.02C200.388 755.391 187.081 756.99 181.942 761.973C179.485 764.365 178.028 767.554 177.852 770.927C177.677 774.3 178.795 777.616 180.991 780.235L175.409 785.652C175.151 785.912 175.009 786.259 175.012 786.62C175.015 786.98 175.164 787.325 175.427 787.58C175.689 787.835 176.045 787.979 176.416 787.983C176.788 787.986 177.145 787.847 177.413 787.597L182.994 782.179C185.692 784.313 189.11 785.401 192.586 785.232C196.062 785.062 199.35 783.648 201.815 781.262C207.022 776.206 208.615 763.331 208.982 759.505C209.042 758.9 208.962 758.29 208.75 757.718C208.537 757.146 208.196 756.627 207.752 756.198V756.198ZM199.819 779.312C197.887 781.18 195.321 782.302 192.6 782.468C189.878 782.634 187.188 781.834 185.03 780.216L198.675 766.972C198.933 766.712 199.076 766.365 199.073 766.004C199.07 765.644 198.921 765.299 198.658 765.044C198.395 764.789 198.04 764.645 197.669 764.641C197.297 764.638 196.939 764.777 196.672 765.027L183.02 778.271C181.352 776.177 180.527 773.566 180.699 770.924C180.87 768.283 182.026 765.792 183.951 763.918C187.505 760.469 197.305 758.437 204.618 757.756C204.825 757.737 205.034 757.762 205.23 757.829C205.427 757.897 205.605 758.006 205.753 758.148C205.9 758.29 206.014 758.462 206.086 758.652C206.157 758.842 206.185 759.044 206.167 759.245C205.458 766.653 203.417 775.813 199.812 779.312H199.819Z" fill="#3E7B31"/>
</g>
<g clip-path="url(#clip9_2025_440)">
<path d="M402.801 87.0548C401.891 86.1979 400.758 85.577 399.513 85.2533C398.267 84.9295 396.954 84.9141 395.7 85.2085C385.983 87.5895 377.084 92.2595 369.855 98.771C368.433 100.106 367.324 101.703 366.599 103.46C365.874 105.216 365.548 107.095 365.642 108.975C365.776 111.705 366.803 114.331 368.584 116.5L360.549 124.013C360.37 124.174 360.228 124.368 360.129 124.581C360.031 124.795 359.979 125.024 359.977 125.257C359.975 125.489 360.022 125.719 360.117 125.934C360.211 126.15 360.35 126.345 360.526 126.509C360.702 126.674 360.912 126.803 361.142 126.891C361.372 126.979 361.619 127.024 361.868 127.022C362.117 127.02 362.363 126.971 362.592 126.88C362.821 126.788 363.028 126.655 363.201 126.488L371.233 118.991C373.695 120.785 376.731 121.756 379.854 121.75C381.921 121.722 383.962 121.315 385.86 120.55C387.759 119.786 389.477 118.681 390.917 117.297C399.167 109.597 403.823 97.266 404.781 93.6278C405.092 92.4661 405.073 91.2486 404.726 90.0958C404.379 88.943 403.715 87.8948 402.801 87.0548V87.0548ZM369.388 108.814C369.318 107.419 369.559 106.025 370.096 104.722C370.634 103.418 371.456 102.233 372.51 101.242C373.313 100.498 374.147 99.8 375 99.1175V110.526L371.269 114.008C370.132 112.476 369.48 110.676 369.388 108.814V108.814ZM388.209 114.868C386.424 116.679 384.004 117.836 381.386 118.131C378.767 118.427 376.122 117.84 373.926 116.478L378.199 112.489L383.276 107.75H394.08C392.382 110.299 390.415 112.683 388.209 114.868ZM401.147 92.7825C400.017 96.7726 398.38 100.622 396.272 104.25H387.026L393.201 98.4875C393.38 98.3261 393.523 98.133 393.621 97.9195C393.719 97.706 393.771 97.4764 393.773 97.244C393.775 97.0116 393.728 96.7812 393.634 96.5661C393.539 96.351 393.4 96.1557 393.224 95.9913C393.048 95.827 392.839 95.6971 392.608 95.6091C392.378 95.5211 392.131 95.4768 391.882 95.4788C391.633 95.4809 391.387 95.5291 391.158 95.6209C390.929 95.7126 390.722 95.8459 390.549 96.013L381.174 104.763L378.75 107.026V96.3963C384.171 92.8506 390.213 90.2147 396.604 88.607C396.901 88.5373 397.205 88.5015 397.511 88.5003C398.003 88.5013 398.489 88.5928 398.942 88.7697C399.396 88.9466 399.807 89.2053 400.153 89.531C400.61 89.9439 400.942 90.4621 401.115 91.033C401.288 91.604 401.296 92.2075 401.139 92.7825H401.147Z" fill="#3E7B31"/>
</g>
<g clip-path="url(#clip10_2025_440)">
<path d="M327.801 790.055C326.891 789.198 325.758 788.577 324.513 788.253C323.267 787.93 321.954 787.914 320.7 788.209C310.983 790.589 302.084 795.259 294.855 801.771C293.433 803.106 292.324 804.703 291.599 806.46C290.874 808.216 290.548 810.095 290.642 811.975C290.776 814.705 291.803 817.331 293.584 819.5L285.549 827.013C285.37 827.174 285.228 827.368 285.129 827.581C285.031 827.795 284.979 828.024 284.977 828.257C284.975 828.489 285.022 828.719 285.117 828.934C285.211 829.15 285.35 829.345 285.526 829.509C285.702 829.674 285.912 829.803 286.142 829.891C286.372 829.979 286.619 830.024 286.868 830.022C287.117 830.02 287.363 829.971 287.592 829.88C287.821 829.788 288.028 829.655 288.201 829.488L296.233 821.991C298.695 823.785 301.731 824.756 304.854 824.75C306.921 824.722 308.962 824.315 310.86 823.55C312.759 822.786 314.477 821.681 315.917 820.297C324.167 812.597 328.823 800.266 329.781 796.628C330.092 795.466 330.073 794.249 329.726 793.096C329.379 791.943 328.715 790.895 327.801 790.055V790.055ZM294.388 811.814C294.318 810.419 294.559 809.025 295.096 807.722C295.634 806.418 296.456 805.233 297.51 804.242C298.313 803.498 299.147 802.8 300 802.118V813.526L296.269 817.008C295.132 815.476 294.48 813.676 294.388 811.814V811.814ZM313.209 817.868C311.424 819.679 309.004 820.836 306.386 821.131C303.767 821.427 301.122 820.84 298.926 819.478L303.199 815.489L308.276 810.75H319.08C317.382 813.299 315.415 815.683 313.209 817.868ZM326.147 795.783C325.017 799.773 323.38 803.622 321.272 807.25H312.026L318.201 801.488C318.38 801.326 318.523 801.133 318.621 800.919C318.719 800.706 318.771 800.476 318.773 800.244C318.775 800.012 318.728 799.781 318.634 799.566C318.539 799.351 318.4 799.156 318.224 798.991C318.048 798.827 317.839 798.697 317.608 798.609C317.378 798.521 317.131 798.477 316.882 798.479C316.633 798.481 316.387 798.529 316.158 798.621C315.929 798.713 315.722 798.846 315.549 799.013L306.174 807.763L303.75 810.026V799.396C309.171 795.851 315.213 793.215 321.604 791.607C321.901 791.537 322.205 791.501 322.511 791.5C323.003 791.501 323.489 791.593 323.942 791.77C324.396 791.947 324.807 792.205 325.153 792.531C325.61 792.944 325.942 793.462 326.115 794.033C326.288 794.604 326.296 795.208 326.139 795.783H326.147Z" fill="#3E7B31"/>
</g>
<g clip-path="url(#clip11_2025_440)">
<path d="M283.752 879.198C283.309 878.77 282.774 878.442 282.185 878.238C281.596 878.034 280.967 877.96 280.345 878.02C276.388 878.391 263.081 879.99 257.942 884.973C255.485 887.365 254.028 890.554 253.852 893.927C253.677 897.3 254.795 900.616 256.991 903.235L251.409 908.652C251.151 908.912 251.009 909.259 251.012 909.62C251.015 909.98 251.164 910.325 251.427 910.58C251.689 910.835 252.045 910.979 252.416 910.983C252.788 910.986 253.145 910.847 253.413 910.597L258.994 905.179C261.692 907.313 265.11 908.401 268.586 908.232C272.062 908.062 275.35 906.648 277.815 904.262C283.022 899.206 284.615 886.331 284.982 882.505C285.042 881.9 284.962 881.29 284.75 880.718C284.537 880.146 284.196 879.627 283.752 879.198V879.198ZM275.819 902.312C273.887 904.18 271.321 905.302 268.6 905.468C265.878 905.634 263.188 904.834 261.03 903.216L274.675 889.972C274.933 889.712 275.076 889.365 275.073 889.004C275.07 888.644 274.921 888.299 274.658 888.044C274.395 887.789 274.04 887.645 273.669 887.641C273.297 887.638 272.939 887.777 272.672 888.027L259.02 901.271C257.352 899.177 256.527 896.566 256.699 893.924C256.87 891.283 258.026 888.792 259.951 886.918C263.505 883.469 273.305 881.437 280.618 880.756C280.825 880.737 281.034 880.762 281.23 880.829C281.427 880.897 281.605 881.006 281.753 881.148C281.9 881.29 282.014 881.462 282.086 881.652C282.157 881.842 282.185 882.044 282.167 882.245C281.458 889.653 279.417 898.813 275.812 902.312H275.819Z" fill="#3E7B31"/>
</g>
<g clip-path="url(#clip12_2025_440)">
<path d="M299.752 145.198C299.309 144.77 298.774 144.442 298.185 144.238C297.596 144.034 296.967 143.96 296.345 144.02C292.388 144.391 279.081 145.99 273.942 150.973C271.485 153.365 270.028 156.554 269.852 159.927C269.677 163.3 270.795 166.616 272.991 169.235L267.409 174.652C267.151 174.912 267.009 175.259 267.012 175.62C267.015 175.98 267.164 176.325 267.427 176.58C267.689 176.835 268.045 176.979 268.416 176.983C268.788 176.986 269.145 176.847 269.413 176.597L274.994 171.179C277.692 173.313 281.11 174.401 284.586 174.232C288.062 174.062 291.35 172.648 293.815 170.262C299.022 165.206 300.615 152.331 300.982 148.505C301.042 147.9 300.962 147.29 300.75 146.718C300.537 146.146 300.196 145.627 299.752 145.198V145.198ZM291.819 168.312C289.887 170.18 287.321 171.302 284.6 171.468C281.878 171.634 279.188 170.834 277.03 169.216L290.675 155.972C290.933 155.712 291.076 155.365 291.073 155.004C291.07 154.644 290.921 154.299 290.658 154.044C290.395 153.789 290.04 153.645 289.669 153.641C289.297 153.638 288.939 153.777 288.672 154.027L275.02 167.271C273.352 165.177 272.527 162.566 272.699 159.924C272.87 157.283 274.026 154.792 275.951 152.918C279.505 149.469 289.305 147.437 296.618 146.756C296.825 146.737 297.034 146.762 297.23 146.829C297.427 146.897 297.605 147.006 297.753 147.148C297.9 147.29 298.014 147.462 298.086 147.652C298.157 147.842 298.185 148.044 298.167 148.245C297.458 155.653 295.417 164.813 291.812 168.312H291.819Z" fill="#3E7B31"/>
</g>
<g clip-path="url(#clip13_2025_440)">
<path d="M56.7519 789.198C56.3092 788.77 55.7739 788.442 55.1848 788.238C54.5956 788.034 53.9672 787.96 53.3449 788.02C49.3881 788.391 36.0814 789.99 30.9417 794.973C28.4849 797.365 27.028 800.554 26.8525 803.927C26.6769 807.3 27.7951 810.616 29.9911 813.235L24.4095 818.652C24.1514 818.912 24.0086 819.259 24.0119 819.62C24.0151 819.98 24.1641 820.325 24.4267 820.58C24.6894 820.835 25.0447 820.979 25.4162 820.983C25.7876 820.986 26.1455 820.847 26.4126 820.597L31.9943 815.179C34.6924 817.313 38.1099 818.401 41.5861 818.232C45.0624 818.062 48.3505 816.648 50.8147 814.262C56.0224 809.206 57.6147 796.331 57.9816 792.505C58.0416 791.9 57.9624 791.29 57.7498 790.718C57.5371 790.146 57.1963 789.627 56.7519 789.198V789.198ZM48.8186 812.312C46.887 814.18 44.321 815.302 41.5997 815.468C38.8784 815.634 36.1877 814.834 34.0301 813.216L47.6754 799.972C47.9334 799.712 48.0762 799.365 48.073 799.004C48.0698 798.644 47.9208 798.299 47.6581 798.044C47.3955 797.789 47.0401 797.645 46.6687 797.641C46.2973 797.638 45.9394 797.777 45.6722 798.027L32.0198 811.271C30.3524 809.177 29.5272 806.566 29.6985 803.924C29.8698 801.283 31.0258 798.792 32.9506 796.918C36.505 793.469 46.3055 791.437 53.6183 790.756C53.8254 790.737 54.0344 790.762 54.2305 790.829C54.4265 790.897 54.6048 791.006 54.7526 791.148C54.9004 791.29 55.0142 791.462 55.0857 791.652C55.1573 791.842 55.185 792.044 55.1667 792.245C54.4584 799.653 52.417 808.813 48.8115 812.312H48.8186Z" fill="#3E7B31"/>
</g>
<g clip-path="url(#clip14_2025_440)">
<path d="M398.752 805.198C398.309 804.77 397.774 804.442 397.185 804.238C396.596 804.034 395.967 803.96 395.345 804.02C391.388 804.391 378.081 805.99 372.942 810.973C370.485 813.365 369.028 816.554 368.852 819.927C368.677 823.3 369.795 826.616 371.991 829.235L366.409 834.652C366.151 834.912 366.009 835.259 366.012 835.62C366.015 835.98 366.164 836.325 366.427 836.58C366.689 836.835 367.045 836.979 367.416 836.983C367.788 836.986 368.145 836.847 368.413 836.597L373.994 831.179C376.692 833.313 380.11 834.401 383.586 834.232C387.062 834.062 390.35 832.648 392.815 830.262C398.022 825.206 399.615 812.331 399.982 808.505C400.042 807.9 399.962 807.29 399.75 806.718C399.537 806.146 399.196 805.627 398.752 805.198V805.198ZM390.819 828.312C388.887 830.18 386.321 831.302 383.6 831.468C380.878 831.634 378.188 830.834 376.03 829.216L389.675 815.972C389.933 815.712 390.076 815.365 390.073 815.004C390.07 814.644 389.921 814.299 389.658 814.044C389.395 813.789 389.04 813.645 388.669 813.641C388.297 813.638 387.939 813.777 387.672 814.027L374.02 827.271C372.352 825.177 371.527 822.566 371.699 819.924C371.87 817.283 373.026 814.792 374.951 812.918C378.505 809.469 388.305 807.437 395.618 806.756C395.825 806.737 396.034 806.762 396.23 806.829C396.427 806.897 396.605 807.006 396.753 807.148C396.9 807.29 397.014 807.462 397.086 807.652C397.157 807.842 397.185 808.044 397.167 808.245C396.458 815.653 394.417 824.813 390.812 828.312H390.819Z" fill="#3E7B31"/>
</g>
<g clip-path="url(#clip15_2025_440)">
<path d="M339.292 47.1214C339.122 46.5287 338.823 45.977 338.414 45.506C338.006 45.035 337.499 44.6565 336.93 44.3977C333.317 42.7413 320.993 37.4746 314.051 39.2212C310.728 40.064 307.871 42.0984 306.033 44.9316C304.195 47.7649 303.506 51.1959 304.099 54.5621L296.557 56.4641C296.203 56.5597 295.906 56.7891 295.729 57.103C295.551 57.4168 295.508 57.79 295.608 58.1421C295.708 58.4942 295.944 58.7971 296.264 58.9854C296.584 59.1738 296.963 59.2327 297.32 59.1493L304.862 57.2474C306.132 60.4445 308.548 63.0948 311.644 64.6858C314.739 66.2768 318.294 66.6955 321.621 65.8609C328.658 64.0852 336.474 53.7297 338.704 50.6001C339.058 50.106 339.295 49.5376 339.396 48.936C339.498 48.3344 339.462 47.7146 339.292 47.1214V47.1214ZM320.867 63.1744C318.26 63.8267 315.477 63.5156 313.037 62.2992C310.597 61.0829 308.667 59.0444 307.607 56.5644L326.045 51.9148C326.398 51.8192 326.696 51.5897 326.873 51.2759C327.05 50.962 327.094 50.5888 326.994 50.2367C326.894 49.8846 326.658 49.5818 326.338 49.3934C326.018 49.205 325.639 49.1462 325.282 49.2295L306.837 53.8756C306.44 51.2284 307.031 48.5541 308.5 46.352C309.968 44.1499 312.214 42.5707 314.819 41.9092C319.621 40.6993 329.125 43.8382 335.799 46.9042C335.988 46.9908 336.157 47.1169 336.292 47.2735C336.428 47.4302 336.528 47.6135 336.585 47.8105C336.642 48.0076 336.655 48.2134 336.622 48.4134C336.589 48.6135 336.512 48.8028 336.396 48.9679C332.079 55.0291 325.732 61.9424 320.86 63.1709L320.867 63.1744Z" fill="#3E7B31"/>
</g>
<g clip-path="url(#clip16_2025_440)">
<path d="M389.752 874.198C389.309 873.77 388.774 873.442 388.185 873.238C387.596 873.034 386.967 872.96 386.345 873.02C382.388 873.391 369.081 874.99 363.942 879.973C361.485 882.365 360.028 885.554 359.852 888.927C359.677 892.3 360.795 895.616 362.991 898.235L357.409 903.652C357.151 903.912 357.009 904.259 357.012 904.62C357.015 904.98 357.164 905.325 357.427 905.58C357.689 905.835 358.045 905.979 358.416 905.983C358.788 905.986 359.145 905.847 359.413 905.597L364.994 900.179C367.692 902.313 371.11 903.401 374.586 903.232C378.062 903.062 381.35 901.648 383.815 899.262C389.022 894.206 390.615 881.331 390.982 877.505C391.042 876.9 390.962 876.29 390.75 875.718C390.537 875.146 390.196 874.627 389.752 874.198V874.198ZM381.819 897.312C379.887 899.18 377.321 900.302 374.6 900.468C371.878 900.634 369.188 899.834 367.03 898.216L380.675 884.972C380.933 884.712 381.076 884.365 381.073 884.004C381.07 883.644 380.921 883.299 380.658 883.044C380.395 882.789 380.04 882.645 379.669 882.641C379.297 882.638 378.939 882.777 378.672 883.027L365.02 896.271C363.352 894.177 362.527 891.566 362.699 888.924C362.87 886.283 364.026 883.792 365.951 881.918C369.505 878.469 379.305 876.437 386.618 875.756C386.825 875.737 387.034 875.762 387.23 875.829C387.427 875.897 387.605 876.006 387.753 876.148C387.9 876.29 388.014 876.462 388.086 876.652C388.157 876.842 388.185 877.044 388.167 877.245C387.458 884.653 385.417 893.813 381.812 897.312H381.819Z" fill="#3E7B31"/>
</g>
<g clip-path="url(#clip17_2025_440)">
<path d="M285.129 229.441C284.749 229.927 284.479 230.493 284.339 231.101C284.198 231.708 284.19 232.341 284.315 232.953C285.1 236.849 288.087 249.915 293.582 254.503C296.218 256.695 299.543 257.809 302.915 257.629C306.288 257.45 309.468 255.99 311.842 253.531L317.816 258.513C318.101 258.743 318.461 258.848 318.819 258.807C319.178 258.766 319.505 258.582 319.731 258.294C319.957 258.006 320.063 257.637 320.027 257.267C319.992 256.898 319.816 256.556 319.539 256.317L313.565 251.335C315.405 248.428 316.128 244.915 315.594 241.476C315.061 238.036 313.309 234.915 310.678 232.715C305.103 228.067 292.132 227.835 288.289 227.871C287.681 227.875 287.082 228.018 286.535 228.29C285.989 228.561 285.509 228.955 285.129 229.441V229.441ZM308.948 234.904C311.009 236.629 312.394 239.063 312.845 241.752C313.296 244.441 312.782 247.201 311.399 249.516L296.796 237.337C296.511 237.107 296.15 237.002 295.792 237.043C295.434 237.084 295.107 237.268 294.881 237.556C294.655 237.844 294.548 238.213 294.584 238.583C294.62 238.952 294.795 239.294 295.073 239.533L309.677 251.72C307.769 253.598 305.259 254.692 302.614 254.799C299.969 254.906 297.371 254.018 295.305 252.301C291.502 249.128 288.452 239.595 287.008 232.394C286.966 232.19 286.969 231.98 287.016 231.778C287.063 231.576 287.152 231.387 287.278 231.225C287.404 231.063 287.563 230.932 287.744 230.841C287.925 230.75 288.124 230.701 288.326 230.698C295.766 230.625 305.09 231.693 308.949 234.911L308.948 234.904Z" fill="#3E7B31"/>
</g>
<g clip-path="url(#clip18_2025_440)">
<path d="M327.053 740.755C327.631 739.647 327.922 738.388 327.896 737.101C327.87 735.815 327.528 734.546 326.905 733.42C321.979 724.712 315.071 717.412 306.844 712.22C305.173 711.213 303.335 710.578 301.448 710.356C299.56 710.135 297.664 710.33 295.879 710.931C293.288 711.8 291.039 713.5 289.434 715.803L280.024 710.106C279.82 709.977 279.596 709.892 279.363 709.855C279.131 709.819 278.896 709.831 278.672 709.892C278.448 709.953 278.239 710.061 278.057 710.21C277.876 710.359 277.725 710.546 277.615 710.76C277.505 710.974 277.436 711.211 277.414 711.457C277.392 711.702 277.416 711.952 277.486 712.191C277.555 712.43 277.668 712.654 277.819 712.849C277.969 713.045 278.153 713.208 278.361 713.329L287.755 719.028C286.696 721.884 286.583 725.069 287.436 728.074C288.023 730.056 288.969 731.91 290.219 733.53C291.469 735.15 292.999 736.504 294.722 737.515C304.37 743.369 317.501 744.507 321.263 744.443C322.466 744.428 323.632 744.079 324.648 743.433C325.663 742.786 326.492 741.863 327.053 740.755V740.755ZM297.05 714.493C298.374 714.047 299.781 713.901 301.181 714.065C302.581 714.229 303.945 714.699 305.185 715.445C306.118 716.016 307.017 716.63 307.905 717.266L296.924 720.359L292.56 717.711C293.727 716.202 295.283 715.086 297.05 714.493V714.493ZM296.326 734.25C294.098 733.023 292.328 731.007 291.334 728.567C290.34 726.127 290.188 723.422 290.904 720.938L295.901 723.97L301.839 727.573L304.768 737.972C301.855 737.028 299.026 735.781 296.326 734.25ZM321.091 740.716C316.944 740.71 312.795 740.178 308.732 739.133L306.225 730.233L313.446 734.614C313.65 734.743 313.874 734.828 314.106 734.864C314.339 734.901 314.574 734.889 314.798 734.828C315.022 734.767 315.231 734.659 315.413 734.51C315.594 734.361 315.744 734.174 315.855 733.96C315.965 733.746 316.034 733.509 316.056 733.263C316.078 733.018 316.054 732.768 315.984 732.529C315.915 732.29 315.802 732.066 315.651 731.871C315.501 731.675 315.317 731.512 315.109 731.391L304.145 724.739L301.31 723.019L311.541 720.138C316.423 724.394 320.599 729.495 323.879 735.211C324.026 735.478 324.144 735.761 324.228 736.055C324.36 736.529 324.404 737.022 324.356 737.506C324.309 737.99 324.171 738.457 323.952 738.878C323.678 739.429 323.269 739.889 322.767 740.211C322.264 740.532 321.685 740.704 321.089 740.709L321.091 740.716Z" fill="#3E7B31"/>
</g>
<g clip-path="url(#clip19_2025_440)">
<path d="M445.801 197.055C444.891 196.198 443.758 195.577 442.513 195.253C441.267 194.93 439.954 194.914 438.7 195.209C428.983 197.589 420.084 202.259 412.855 208.771C411.433 210.106 410.324 211.703 409.599 213.46C408.874 215.216 408.548 217.095 408.642 218.975C408.776 221.705 409.803 224.331 411.584 226.5L403.549 234.013C403.37 234.174 403.228 234.368 403.129 234.581C403.031 234.795 402.979 235.024 402.977 235.257C402.975 235.489 403.022 235.719 403.117 235.934C403.211 236.15 403.35 236.345 403.526 236.509C403.702 236.674 403.912 236.803 404.142 236.891C404.372 236.979 404.619 237.024 404.868 237.022C405.117 237.02 405.363 236.971 405.592 236.88C405.821 236.788 406.028 236.655 406.201 236.488L414.233 228.991C416.695 230.785 419.731 231.756 422.854 231.75C424.921 231.722 426.962 231.315 428.86 230.55C430.759 229.786 432.477 228.681 433.917 227.297C442.167 219.597 446.823 207.266 447.781 203.628C448.092 202.466 448.073 201.249 447.726 200.096C447.379 198.943 446.715 197.895 445.801 197.055V197.055ZM412.388 218.814C412.318 217.419 412.559 216.025 413.096 214.722C413.634 213.418 414.456 212.233 415.51 211.242C416.313 210.498 417.147 209.8 418 209.118V220.526L414.269 224.008C413.132 222.476 412.48 220.676 412.388 218.814V218.814ZM431.209 224.868C429.424 226.679 427.004 227.836 424.386 228.131C421.767 228.427 419.122 227.84 416.926 226.478L421.199 222.489L426.276 217.75H437.08C435.382 220.299 433.415 222.683 431.209 224.868ZM444.147 202.783C443.017 206.773 441.38 210.622 439.272 214.25H430.026L436.201 208.488C436.38 208.326 436.523 208.133 436.621 207.919C436.719 207.706 436.771 207.476 436.773 207.244C436.775 207.012 436.728 206.781 436.634 206.566C436.539 206.351 436.4 206.156 436.224 205.991C436.048 205.827 435.839 205.697 435.608 205.609C435.378 205.521 435.131 205.477 434.882 205.479C434.633 205.481 434.387 205.529 434.158 205.621C433.929 205.713 433.722 205.846 433.549 206.013L424.174 214.763L421.75 217.026V206.396C427.171 202.851 433.213 200.215 439.604 198.607C439.901 198.537 440.205 198.501 440.511 198.5C441.003 198.501 441.489 198.593 441.942 198.77C442.396 198.947 442.807 199.205 443.153 199.531C443.61 199.944 443.942 200.462 444.115 201.033C444.288 201.604 444.296 202.208 444.139 202.783H444.147Z" fill="#3E7B31"/>
</g>
<g clip-path="url(#clip20_2025_440)">
<path d="M203.801 129.055C202.891 128.198 201.758 127.577 200.513 127.253C199.267 126.93 197.954 126.914 196.7 127.209C186.983 129.589 178.084 134.259 170.855 140.771C169.433 142.106 168.324 143.703 167.599 145.46C166.874 147.216 166.548 149.095 166.642 150.975C166.776 153.705 167.803 156.331 169.584 158.5L161.549 166.013C161.37 166.174 161.228 166.368 161.129 166.581C161.031 166.795 160.979 167.024 160.977 167.257C160.975 167.489 161.022 167.719 161.117 167.934C161.211 168.15 161.35 168.345 161.526 168.509C161.702 168.674 161.912 168.803 162.142 168.891C162.372 168.979 162.619 169.024 162.868 169.022C163.117 169.02 163.363 168.971 163.592 168.88C163.821 168.788 164.028 168.655 164.201 168.488L172.233 160.991C174.695 162.785 177.731 163.756 180.854 163.75C182.921 163.722 184.962 163.315 186.86 162.55C188.759 161.786 190.477 160.681 191.917 159.297C200.167 151.597 204.823 139.266 205.781 135.628C206.092 134.466 206.073 133.249 205.726 132.096C205.379 130.943 204.715 129.895 203.801 129.055V129.055ZM170.388 150.814C170.318 149.419 170.559 148.025 171.096 146.722C171.634 145.418 172.456 144.233 173.51 143.242C174.313 142.498 175.147 141.8 176 141.118V152.526L172.269 156.008C171.132 154.476 170.48 152.676 170.388 150.814V150.814ZM189.209 156.868C187.424 158.679 185.004 159.836 182.386 160.131C179.767 160.427 177.122 159.84 174.926 158.478L179.199 154.489L184.276 149.75H195.08C193.382 152.299 191.415 154.683 189.209 156.868ZM202.147 134.783C201.017 138.773 199.38 142.622 197.272 146.25H188.026L194.201 140.488C194.38 140.326 194.523 140.133 194.621 139.919C194.719 139.706 194.771 139.476 194.773 139.244C194.775 139.012 194.728 138.781 194.634 138.566C194.539 138.351 194.4 138.156 194.224 137.991C194.048 137.827 193.839 137.697 193.608 137.609C193.378 137.521 193.131 137.477 192.882 137.479C192.633 137.481 192.387 137.529 192.158 137.621C191.929 137.713 191.722 137.846 191.549 138.013L182.174 146.763L179.75 149.026V138.396C185.171 134.851 191.213 132.215 197.604 130.607C197.901 130.537 198.205 130.501 198.511 130.5C199.003 130.501 199.489 130.593 199.942 130.77C200.396 130.947 200.807 131.205 201.153 131.531C201.61 131.944 201.942 132.462 202.115 133.033C202.288 133.604 202.296 134.208 202.139 134.783H202.147Z" fill="#3E7B31"/>
</g>
<g clip-path="url(#clip21_2025_440)">
<path d="M137.801 844.055C136.891 843.198 135.758 842.577 134.513 842.253C133.267 841.93 131.954 841.914 130.7 842.209C120.983 844.589 112.084 849.259 104.855 855.771C103.433 857.106 102.324 858.703 101.599 860.46C100.874 862.216 100.548 864.095 100.642 865.975C100.776 868.705 101.803 871.331 103.584 873.5L95.5495 881.013C95.3704 881.174 95.2275 881.368 95.1293 881.581C95.031 881.795 94.9793 882.024 94.9771 882.257C94.975 882.489 95.0224 882.719 95.1167 882.934C95.211 883.15 95.3502 883.345 95.5262 883.509C95.7023 883.674 95.9116 883.803 96.1421 883.891C96.3725 883.979 96.6194 884.024 96.8683 884.022C97.1173 884.02 97.3633 883.971 97.5921 883.88C97.8209 883.788 98.0278 883.655 98.2007 883.488L106.233 875.991C108.695 877.785 111.731 878.756 114.854 878.75C116.921 878.722 118.962 878.315 120.86 877.55C122.759 876.786 124.477 875.681 125.917 874.297C134.167 866.597 138.823 854.266 139.781 850.628C140.092 849.466 140.073 848.249 139.726 847.096C139.379 845.943 138.715 844.895 137.801 844.055V844.055ZM104.388 865.814C104.318 864.419 104.559 863.025 105.096 861.722C105.634 860.418 106.456 859.233 107.51 858.242C108.313 857.498 109.147 856.8 110 856.118V867.526L106.269 871.008C105.132 869.476 104.48 867.676 104.388 865.814V865.814ZM123.209 871.868C121.424 873.679 119.004 874.836 116.386 875.131C113.767 875.427 111.122 874.84 108.926 873.478L113.199 869.489L118.276 864.75H129.08C127.382 867.299 125.415 869.683 123.209 871.868ZM136.147 849.783C135.017 853.773 133.38 857.622 131.272 861.25H122.026L128.201 855.488C128.38 855.326 128.523 855.133 128.621 854.919C128.719 854.706 128.771 854.476 128.773 854.244C128.775 854.012 128.728 853.781 128.634 853.566C128.539 853.351 128.4 853.156 128.224 852.991C128.048 852.827 127.839 852.697 127.608 852.609C127.378 852.521 127.131 852.477 126.882 852.479C126.633 852.481 126.387 852.529 126.158 852.621C125.929 852.713 125.722 852.846 125.549 853.013L116.174 861.763L113.75 864.026V853.396C119.171 849.851 125.213 847.215 131.604 845.607C131.901 845.537 132.205 845.501 132.511 845.5C133.003 845.501 133.489 845.593 133.942 845.77C134.396 845.947 134.807 846.205 135.153 846.531C135.61 846.944 135.942 847.462 136.115 848.033C136.288 848.604 136.296 849.208 136.139 849.783H136.147Z" fill="#3E7B31"/>
</g>
<g clip-path="url(#clip22_2025_440)">
<path d="M203.801 30.0548C202.891 29.1979 201.758 28.577 200.513 28.2533C199.267 27.9295 197.954 27.9141 196.7 28.2085C186.983 30.5895 178.084 35.2595 170.855 41.771C169.433 43.1063 168.324 44.703 167.599 46.4597C166.874 48.2164 166.548 50.0947 166.642 51.9753C166.776 54.7052 167.803 57.3312 169.584 59.5003L161.549 67.013C161.37 67.1745 161.228 67.3676 161.129 67.5811C161.031 67.7946 160.979 68.0242 160.977 68.2566C160.975 68.4889 161.022 68.7194 161.117 68.9345C161.211 69.1495 161.35 69.3449 161.526 69.5092C161.702 69.6735 161.912 69.8035 162.142 69.8915C162.372 69.9795 162.619 70.0237 162.868 70.0217C163.117 70.0197 163.363 69.9714 163.592 69.8797C163.821 69.788 164.028 69.6547 164.201 69.4875L172.233 61.9905C174.695 63.7847 177.731 64.7564 180.854 64.7503C182.921 64.7224 184.962 64.3147 186.86 63.5505C188.759 62.7863 190.477 61.6806 191.917 60.2965C200.167 52.5965 204.823 40.266 205.781 36.6278C206.092 35.4661 206.073 34.2486 205.726 33.0958C205.379 31.943 204.715 30.8948 203.801 30.0548V30.0548ZM170.388 51.8143C170.318 50.4191 170.559 49.0254 171.096 47.7218C171.634 46.4182 172.456 45.2332 173.51 44.242C174.313 43.4983 175.147 42.8 176 42.1175V53.5258L172.269 57.0083C171.132 55.4761 170.48 53.6761 170.388 51.8143V51.8143ZM189.209 57.8675C187.424 59.679 185.004 60.8363 182.386 61.1314C179.767 61.4266 177.122 60.8401 174.926 59.4775L179.199 55.4893L184.276 50.7503H195.08C193.382 53.2991 191.415 55.6833 189.209 57.8675ZM202.147 35.7825C201.017 39.7726 199.38 43.6224 197.272 47.2503H188.026L194.201 41.4875C194.38 41.3261 194.523 41.133 194.621 40.9195C194.719 40.706 194.771 40.4764 194.773 40.244C194.775 40.0116 194.728 39.7812 194.634 39.5661C194.539 39.351 194.4 39.1557 194.224 38.9913C194.048 38.827 193.839 38.6971 193.608 38.6091C193.378 38.5211 193.131 38.4768 192.882 38.4788C192.633 38.4809 192.387 38.5291 192.158 38.6209C191.929 38.7126 191.722 38.8459 191.549 39.013L182.174 47.763L179.75 50.0258V39.3963C185.171 35.8506 191.213 33.2147 197.604 31.607C197.901 31.5373 198.205 31.5015 198.511 31.5003C199.003 31.5013 199.489 31.5928 199.942 31.7697C200.396 31.9466 200.807 32.2053 201.153 32.531C201.61 32.9439 201.942 33.4621 202.115 34.033C202.288 34.604 202.296 35.2075 202.139 35.7825H202.147Z" fill="#3E7B31"/>
</g>
<g clip-path="url(#clip23_2025_440)">
<path d="M28.8007 892.055C27.8909 891.198 26.7577 890.577 25.5126 890.253C24.2675 889.93 22.9535 889.914 21.7001 890.209C11.983 892.589 3.08384 897.259 -4.14491 903.771C-5.56692 905.106 -6.67581 906.703 -7.40112 908.46C-8.12643 910.216 -8.4523 912.095 -8.35803 913.975C-8.22373 916.705 -7.19709 919.331 -5.41616 921.5L-13.4505 929.013C-13.6296 929.174 -13.7725 929.368 -13.8707 929.581C-13.969 929.795 -14.0207 930.024 -14.0229 930.257C-14.025 930.489 -13.9776 930.719 -13.8833 930.934C-13.789 931.15 -13.6498 931.345 -13.4738 931.509C-13.2977 931.674 -13.0884 931.803 -12.8579 931.891C-12.6275 931.979 -12.3806 932.024 -12.1317 932.022C-11.8827 932.02 -11.6367 931.971 -11.4079 931.88C-11.1791 931.788 -10.9722 931.655 -10.7993 931.488L-2.76678 923.991C-0.304728 925.785 2.73085 926.756 5.85447 926.75C7.92144 926.722 9.96226 926.315 11.8604 925.55C13.7585 924.786 15.4768 923.681 16.917 922.297C25.167 914.597 29.8226 902.266 30.7807 898.628C31.0922 897.466 31.0734 896.249 30.7261 895.096C30.3788 893.943 29.7152 892.895 28.8007 892.055V892.055ZM-4.61178 913.814C-4.68236 912.419 -4.44126 911.025 -3.90382 909.722C-3.36638 908.418 -2.54434 907.233 -1.48991 906.242C-0.687409 905.498 0.146966 904.8 1.00009 904.118V915.526L-2.73116 919.008C-3.86815 917.476 -4.5199 915.676 -4.61178 913.814V913.814ZM14.2095 919.868C12.4237 921.679 10.0041 922.836 7.38575 923.131C4.76742 923.427 2.12216 922.84 -0.074284 921.478L4.19884 917.489L9.27634 912.75H20.0801C18.3818 915.299 16.4152 917.683 14.2095 919.868ZM27.147 897.783C26.0168 901.773 24.3802 905.622 22.272 909.25H13.0263L19.2007 903.488C19.3798 903.326 19.5226 903.133 19.6209 902.919C19.7192 902.706 19.7709 902.476 19.7731 902.244C19.7752 902.012 19.7278 901.781 19.6335 901.566C19.5392 901.351 19.4 901.156 19.224 900.991C19.0479 900.827 18.8386 900.697 18.6081 900.609C18.3777 900.521 18.1308 900.477 17.8818 900.479C17.6329 900.481 17.3868 900.529 17.1581 900.621C16.9293 900.713 16.7224 900.846 16.5495 901.013L7.17447 909.763L4.75009 912.026V901.396C10.1707 897.851 16.2126 895.215 22.6038 893.607C22.9006 893.537 23.2053 893.501 23.5113 893.5C24.0027 893.501 24.4891 893.593 24.9424 893.77C25.3958 893.947 25.8073 894.205 26.1532 894.531C26.6099 894.944 26.9416 895.462 27.1148 896.033C27.2879 896.604 27.2965 897.208 27.1395 897.783H27.147Z" fill="#3E7B31"/>
</g>
<g clip-path="url(#clip24_2025_440)">
<path d="M112.801 712.055C111.891 711.198 110.758 710.577 109.513 710.253C108.267 709.93 106.954 709.914 105.7 710.209C95.983 712.589 87.0838 717.259 79.8551 723.771C78.4331 725.106 77.3242 726.703 76.5989 728.46C75.8736 730.216 75.5477 732.095 75.642 733.975C75.7763 736.705 76.8029 739.331 78.5838 741.5L70.5495 749.013C70.3704 749.174 70.2275 749.368 70.1293 749.581C70.031 749.795 69.9793 750.024 69.9771 750.257C69.975 750.489 70.0224 750.719 70.1167 750.934C70.211 751.15 70.3502 751.345 70.5262 751.509C70.7023 751.674 70.9116 751.803 71.1421 751.891C71.3725 751.979 71.6194 752.024 71.8683 752.022C72.1173 752.02 72.3633 751.971 72.5921 751.88C72.8209 751.788 73.0278 751.655 73.2007 751.488L81.2332 743.991C83.6953 745.785 86.7309 746.756 89.8545 746.75C91.9214 746.722 93.9623 746.315 95.8604 745.55C97.7585 744.786 99.4768 743.681 100.917 742.297C109.167 734.597 113.823 722.266 114.781 718.628C115.092 717.466 115.073 716.249 114.726 715.096C114.379 713.943 113.715 712.895 112.801 712.055V712.055ZM79.3882 733.814C79.3176 732.419 79.5587 731.025 80.0962 729.722C80.6336 728.418 81.4557 727.233 82.5101 726.242C83.3126 725.498 84.147 724.8 85.0001 724.118V735.526L81.2688 739.008C80.1318 737.476 79.4801 735.676 79.3882 733.814V733.814ZM98.2095 739.868C96.4237 741.679 94.0041 742.836 91.3858 743.131C88.7674 743.427 86.1222 742.84 83.9257 741.478L88.1988 737.489L93.2763 732.75H104.08C102.382 735.299 100.415 737.683 98.2095 739.868ZM111.147 717.783C110.017 721.773 108.38 725.622 106.272 729.25H97.0263L103.201 723.488C103.38 723.326 103.523 723.133 103.621 722.919C103.719 722.706 103.771 722.476 103.773 722.244C103.775 722.012 103.728 721.781 103.634 721.566C103.539 721.351 103.4 721.156 103.224 720.991C103.048 720.827 102.839 720.697 102.608 720.609C102.378 720.521 102.131 720.477 101.882 720.479C101.633 720.481 101.387 720.529 101.158 720.621C100.929 720.713 100.722 720.846 100.549 721.013L91.1745 729.763L88.7501 732.026V721.396C94.1707 717.851 100.213 715.215 106.604 713.607C106.901 713.537 107.205 713.501 107.511 713.5C108.003 713.501 108.489 713.593 108.942 713.77C109.396 713.947 109.807 714.205 110.153 714.531C110.61 714.944 110.942 715.462 111.115 716.033C111.288 716.604 111.296 717.208 111.139 717.783H111.147Z" fill="#3E7B31"/>
</g>
<ellipse cx="214.745" cy="1.29593" rx="125.493" ry="230.77" transform="rotate(-90.4485 214.745 1.29593)" fill="#587A83"/>
</g>
<defs>
<clipPath id="clip0_2025_440">
<rect width="430" height="932" fill="white"/>
</clipPath>
<clipPath id="clip1_2025_440">
<rect width="45" height="42" fill="white" transform="translate(73 262)"/>
</clipPath>
<clipPath id="clip2_2025_440">
<rect width="45" height="42" fill="white" transform="translate(-4 466)"/>
</clipPath>
<clipPath id="clip3_2025_440">
<rect width="34" height="33" fill="white" transform="translate(206 415.716) rotate(-60.9253)"/>
</clipPath>
<clipPath id="clip4_2025_440">
<rect width="45" height="42" fill="white" transform="translate(392 381)"/>
</clipPath>
<clipPath id="clip5_2025_440">
<rect width="45" height="42" fill="white" transform="translate(201 504)"/>
</clipPath>
<clipPath id="clip6_2025_440">
<rect width="34" height="33" fill="white" transform="translate(62 82.731) rotate(-4.60713)"/>
</clipPath>
<clipPath id="clip7_2025_440">
<rect width="34" height="33" fill="white" transform="translate(83.699 186) rotate(82.2559)"/>
</clipPath>
<clipPath id="clip8_2025_440">
<rect width="34" height="33" fill="white" transform="translate(175 755)"/>
</clipPath>
<clipPath id="clip9_2025_440">
<rect width="45" height="42" fill="white" transform="translate(360 85)"/>
</clipPath>
<clipPath id="clip10_2025_440">
<rect width="45" height="42" fill="white" transform="translate(285 788)"/>
</clipPath>
<clipPath id="clip11_2025_440">
<rect width="34" height="33" fill="white" transform="translate(251 878)"/>
</clipPath>
<clipPath id="clip12_2025_440">
<rect width="34" height="33" fill="white" transform="translate(267 144)"/>
</clipPath>
<clipPath id="clip13_2025_440">
<rect width="34" height="33" fill="white" transform="translate(24 788)"/>
</clipPath>
<clipPath id="clip14_2025_440">
<rect width="34" height="33" fill="white" transform="translate(366 804)"/>
</clipPath>
<clipPath id="clip15_2025_440">
<rect width="34" height="33" fill="white" transform="translate(311.524 29.7115) rotate(29.9918)"/>
</clipPath>
<clipPath id="clip16_2025_440">
<rect width="34" height="33" fill="white" transform="translate(357 873)"/>
</clipPath>
<clipPath id="clip17_2025_440">
<rect width="34" height="33" fill="white" transform="translate(287.376 262.138) rotate(-96.026)"/>
</clipPath>
<clipPath id="clip18_2025_440">
<rect width="45" height="42" fill="white" transform="translate(317.427 699) rotate(74.2694)"/>
</clipPath>
<clipPath id="clip19_2025_440">
<rect width="45" height="42" fill="white" transform="translate(403 195)"/>
</clipPath>
<clipPath id="clip20_2025_440">
<rect width="45" height="42" fill="white" transform="translate(161 127)"/>
</clipPath>
<clipPath id="clip21_2025_440">
<rect width="45" height="42" fill="white" transform="translate(95 842)"/>
</clipPath>
<clipPath id="clip22_2025_440">
<rect width="45" height="42" fill="white" transform="translate(161 28)"/>
</clipPath>
<clipPath id="clip23_2025_440">
<rect width="45" height="42" fill="white" transform="translate(-14 890)"/>
</clipPath>
<clipPath id="clip24_2025_440">
<rect width="45" height="42" fill="white" transform="translate(70 710)"/>
</clipPath>
</defs>
</svg>
