<svg width="53" height="55" viewBox="0 0 53 55" fill="none" xmlns="http://www.w3.org/2000/svg">
<g clip-path="url(#clip0_12_35)">
<path d="M50.053 41.7548C50.6312 40.6468 50.9216 39.3876 50.8956 38.1014C50.8697 36.8152 50.5283 35.5462 49.9051 34.4196C44.9788 25.7119 38.0711 18.4121 29.8436 13.2195C28.1728 12.2128 26.3353 11.5783 24.4477 11.3564C22.5602 11.1345 20.6639 11.3301 18.8793 11.9307C16.288 12.8001 14.0387 14.5002 12.4337 16.8025L3.02407 11.1059C2.82013 10.9773 2.59553 10.8921 2.36338 10.8554C2.13123 10.8187 1.89617 10.8312 1.67193 10.8921C1.44768 10.953 1.23873 11.0611 1.05728 11.2102C0.875823 11.3593 0.725494 11.5462 0.615066 11.7602C0.504639 11.9742 0.436315 12.211 0.414094 12.4566C0.391869 12.7023 0.416188 12.952 0.485631 13.191C0.55507 13.4301 0.668245 13.6539 0.818542 13.8492C0.968843 14.0445 1.15326 14.2075 1.36104 14.3287L10.755 20.0278C9.69552 22.8841 9.58318 26.0694 10.4359 29.0744C11.0232 31.0564 11.9689 32.9102 13.2191 34.5301C14.4693 36.1499 15.9994 37.504 17.7221 38.5151C27.3704 44.3685 40.5013 45.5068 44.263 45.4427C45.4656 45.4275 46.6324 45.0793 47.6479 44.4325C48.6634 43.7857 49.4924 42.8627 50.053 41.7548ZM20.0499 15.493C21.3737 15.0468 22.7805 14.901 24.181 15.0649C25.5815 15.2288 26.945 15.6988 28.1849 16.445C29.1184 17.0158 30.0167 17.6296 30.9049 18.2658L19.9239 21.3587L15.5603 18.7113C16.7268 17.2015 18.2827 16.0862 20.0499 15.493ZM19.3261 35.2504C17.0983 34.0227 15.3283 32.0075 14.3344 29.5672C13.3405 27.1269 13.1878 24.4218 13.9038 21.9382L18.9012 24.97L24.8393 28.5725L27.7684 38.9716C24.8546 38.0279 22.0265 36.7813 19.3261 35.2504ZM44.0915 41.7159C39.9444 41.7097 35.7951 41.1782 31.7315 40.1325L29.2249 31.2331L36.4458 35.6139C36.6497 35.7425 36.8743 35.8277 37.1065 35.8644C37.3386 35.9011 37.5737 35.8886 37.7979 35.8277C38.0222 35.7668 38.2311 35.6586 38.4126 35.5096C38.594 35.3605 38.7444 35.1735 38.8548 34.9595C38.9652 34.7455 39.0335 34.5088 39.0558 34.2631C39.078 34.0175 39.0537 33.7678 38.9842 33.5287C38.9148 33.2896 38.8016 33.0659 38.6513 32.8706C38.501 32.6753 38.3166 32.5123 38.1088 32.3911L27.1448 25.7395L24.3095 24.0193L34.5409 21.1375C39.4234 25.3939 43.5987 30.4948 46.8789 36.2108C47.0264 36.4776 47.1435 36.7612 47.2277 37.0554C47.3599 37.5287 47.4036 38.0216 47.3563 38.506C47.309 38.9903 47.1715 39.4565 46.9518 39.8778C46.6781 40.4293 46.2693 40.889 45.7667 41.2105C45.2641 41.532 44.6855 41.7039 44.0894 41.7086L44.0915 41.7159Z" fill="#3E7B31"/>
</g>
<defs>
<clipPath id="clip0_12_35">
<rect width="45" height="42" fill="white" transform="translate(40.427) rotate(74.2694)"/>
</clipPath>
</defs>
</svg>
