<svg width="34" height="33" viewBox="0 0 34 33" fill="none" xmlns="http://www.w3.org/2000/svg">
<g clip-path="url(#clip0_15_54)">
<path d="M32.7519 1.19844C32.3091 0.769697 31.7739 0.441624 31.1847 0.237858C30.5956 0.0340918 29.9672 -0.0402931 29.3448 0.020063C25.3881 0.391313 12.0814 1.99044 6.9417 6.97344C4.48487 9.3645 3.02801 12.5543 2.85245 15.9269C2.6769 19.2995 3.7951 22.6156 5.99111 25.2348L0.409454 30.6523C0.151397 30.9116 0.00860558 31.259 0.0118333 31.6195C0.0150611 31.98 0.16405 32.3249 0.426711 32.5798C0.689373 32.8347 1.04469 32.9794 1.41613 32.9825C1.78758 32.9856 2.14543 32.847 2.41262 32.5966L7.99428 27.1791C10.6923 29.3133 14.1098 30.4009 17.5861 30.2315C21.0624 30.0621 24.3505 28.6478 26.8147 26.2619C32.0223 21.2061 33.6147 8.33056 33.9816 4.50531C34.0416 3.90014 33.9624 3.28958 33.7497 2.71772C33.5371 2.14585 33.1963 1.62694 32.7519 1.19844ZM24.8186 24.3122C22.887 26.1801 20.321 27.3019 17.5997 27.4681C14.8783 27.6344 12.1877 26.8337 10.03 25.2156L23.6753 11.9716C23.9334 11.7122 24.0762 11.3649 24.073 11.0044C24.0697 10.6439 23.9207 10.299 23.6581 10.0441C23.3954 9.78913 23.0401 9.64452 22.6687 9.64139C22.2972 9.63825 21.9394 9.77684 21.6722 10.0273L8.01978 23.2713C6.35233 21.1772 5.5272 18.5656 5.69848 15.9243C5.86975 13.2829 7.02573 10.7923 8.95053 8.91769C12.5049 5.46919 22.3054 3.43694 29.6183 2.75631C29.8254 2.73675 30.0344 2.76172 30.2304 2.82943C30.4265 2.89715 30.6048 3.00596 30.7526 3.14812C30.9004 3.29028 31.0141 3.4623 31.0857 3.65196C31.1573 3.84161 31.1849 4.04424 31.1667 4.24544C30.4583 11.6526 28.4169 20.8128 24.8115 24.3122H24.8186Z" fill="#3E7B31"/>
</g>
<defs>
<clipPath id="clip0_15_54">
<rect width="34" height="33" fill="white"/>
</clipPath>
</defs>
</svg>
